<svg width="2099" height="2099" viewBox="0 0 2099 2099" fill="none" xmlns="http://www.w3.org/2000/svg">
<rect width="2099" height="2099" rx="425" fill="white"/>
<path fill-rule="evenodd" clip-rule="evenodd" d="M662.101 893.525C661.88 994.091 655.771 1090.03 732.67 1169.36C808.825 1247.92 924.135 1266.56 1028.08 1229.28C1046.83 1222.55 1072.16 1207.35 1087.91 1195.05C1092.83 1191.2 1099.33 1182.4 1106.52 1181.1C1110.42 1240.5 1095.71 1296.11 1053.46 1318.79C1010.35 1341.93 934.594 1322.56 890.507 1310.96C828.186 1294.58 779.983 1295.83 729.155 1323.38C643.151 1369.99 621.567 1524.97 757.751 1601.28C817.255 1634.63 890.648 1646.26 969.88 1646.42C1072.77 1646.59 1156.87 1628.76 1234.04 1590.84C1359.24 1529.3 1396.53 1453.7 1408.43 1445.84C1416.6 1447.94 1458.53 1486.31 1462.35 1436.75C1465.75 1392.55 1468.06 1373.02 1467.89 1327.28C1467.82 1292.85 1449.26 1297.67 1425.06 1306.99C1403.21 1315.4 1334.86 1345.69 1319.74 1357.96C1310.72 1365.29 1312.08 1378.74 1320.73 1385.37C1324.37 1388.15 1329.62 1390.48 1333.29 1392.61L1344.44 1401.52C1326.79 1434.92 1259.5 1480.13 1221.14 1495.95C1165.83 1518.76 1105.34 1531.71 1038.4 1531.57C988.475 1531.47 934.691 1527.98 891.694 1514.76C860.971 1505.31 787.916 1483.76 796.34 1446.46C815.397 1427.15 857.733 1443.26 879.904 1447.5C908.486 1452.97 940.179 1459.19 968.9 1462.44C1028.88 1469.23 1097.33 1452.53 1139.13 1427.79C1271.44 1349.48 1256.09 1188.55 1255.97 1034.2L1256.51 748.803C1256.63 729.352 1265.24 736.772 1282.31 711.019C1317.69 657.626 1313.86 579.502 1294.21 519.125C1290.32 507.164 1285.21 495.455 1279.76 484.487C1274.1 473.08 1271.18 460.105 1254.82 462.977C1251.77 464.597 1233.48 520.373 1222.9 540.487C1209.43 566.119 1197.54 585.366 1179.68 608.658C1163.51 629.758 1170.59 620.733 1147.58 631.066C1099.3 652.752 1109.12 713.504 1109 760.664L1108.71 944.324C1109.01 1114.45 921.694 1148.11 846.199 1059.84C804.097 1010.62 810.594 929.731 810.768 862.263L811.012 713.772C811.083 677.94 816.513 640.647 782.533 625.54C772.1 620.902 775.774 624.301 769.383 614.894C743.024 576.091 718.941 533.668 707.555 487.157C703.345 469.963 704.428 462.691 694.434 451.864C673.019 441.827 646.257 522.3 642.932 534.264C627.748 588.908 625.607 650.663 654.554 702.2C660.702 713.147 663.494 711.781 663.216 727.38L662.101 893.525Z" fill="#F2409B"/>
<path fill-rule="evenodd" clip-rule="evenodd" d="M662.101 893.525C661.88 994.091 655.771 1090.03 732.67 1169.36C808.825 1247.92 924.135 1266.56 1028.08 1229.28C1046.83 1222.55 1072.16 1207.35 1087.91 1195.05C1092.83 1191.2 1099.33 1182.4 1106.52 1181.1C1110.42 1240.5 1095.71 1296.11 1053.46 1318.79C1010.35 1341.93 934.594 1322.56 890.507 1310.96C828.186 1294.58 779.983 1295.83 729.155 1323.38C643.151 1369.99 621.567 1524.97 757.751 1601.28C817.255 1634.63 890.648 1646.26 969.88 1646.42C1072.77 1646.59 1156.87 1628.76 1234.04 1590.84C1359.24 1529.3 1396.53 1453.7 1408.43 1445.84C1416.6 1447.94 1458.53 1486.31 1462.35 1436.75C1465.75 1392.55 1468.06 1373.02 1467.89 1327.28C1467.82 1292.85 1449.26 1297.67 1425.06 1306.99C1403.21 1315.4 1334.86 1345.69 1319.74 1357.96C1310.72 1365.29 1312.08 1378.74 1320.73 1385.37C1324.37 1388.15 1329.62 1390.48 1333.29 1392.61L1344.44 1401.52C1326.79 1434.92 1259.5 1480.13 1221.14 1495.95C1165.83 1518.76 1105.34 1531.71 1038.4 1531.57C988.475 1531.47 934.691 1527.98 891.694 1514.76C860.971 1505.31 787.916 1483.76 796.34 1446.46C815.397 1427.15 857.733 1443.26 879.904 1447.5C908.486 1452.97 940.179 1459.19 968.9 1462.44C1028.88 1469.23 1097.33 1452.53 1139.13 1427.79C1271.44 1349.48 1256.09 1188.55 1255.97 1034.2L1256.51 748.803C1256.63 729.352 1265.24 736.772 1282.31 711.019C1317.69 657.626 1313.86 579.502 1294.21 519.125C1290.32 507.164 1285.21 495.455 1279.76 484.487C1274.1 473.08 1271.18 460.105 1254.82 462.977C1251.77 464.597 1233.48 520.373 1222.9 540.487C1209.43 566.119 1197.54 585.366 1179.68 608.658C1163.51 629.758 1170.59 620.733 1147.58 631.066C1099.3 652.752 1109.12 713.504 1109 760.664L1108.71 944.324C1109.01 1114.45 921.694 1148.11 846.199 1059.84C804.097 1010.62 810.594 929.731 810.768 862.263L811.012 713.772C811.083 677.94 816.513 640.647 782.533 625.54C772.1 620.902 775.774 624.301 769.383 614.894C743.024 576.091 718.941 533.668 707.555 487.157C703.345 469.963 704.428 462.691 694.434 451.864C673.019 441.827 646.257 522.3 642.932 534.264C627.748 588.908 625.607 650.663 654.554 702.2C660.702 713.147 663.494 711.781 663.216 727.38L662.101 893.525Z" fill="#F2409B"/>
</svg>
