<svg width="1098" height="332" viewBox="0 0 1098 332" fill="none" xmlns="http://www.w3.org/2000/svg">
<path d="M321.588 305.303C315.044 305.303 309.029 303.782 303.542 300.738C298.056 297.628 293.693 293.361 290.454 287.936C287.281 282.444 285.695 276.258 285.695 269.377C285.695 262.496 287.281 256.343 290.454 250.918C293.693 245.426 298.056 241.159 303.542 238.115C309.029 235.072 315.044 233.55 321.588 233.55C328.198 233.55 334.213 235.072 339.634 238.115C345.12 241.159 349.45 245.426 352.623 250.918C355.796 256.343 357.382 262.496 357.382 269.377C357.382 276.258 355.796 282.444 352.623 287.936C349.45 293.361 345.12 297.628 339.634 300.738C334.147 303.782 328.132 305.303 321.588 305.303ZM321.588 287.241C326.546 287.241 330.446 285.62 333.288 282.378C336.197 279.136 337.651 274.802 337.651 269.377C337.651 263.819 336.197 259.453 333.288 256.277C330.446 253.035 326.546 251.414 321.588 251.414C316.564 251.414 312.631 253.035 309.789 256.277C306.947 259.453 305.525 263.819 305.525 269.377C305.525 274.868 306.947 279.235 309.789 282.477C312.631 285.653 316.564 287.241 321.588 287.241Z" fill="#F2409B"/>
<path d="M391.501 258.758C393.683 255.582 396.327 253.068 399.433 251.215C402.54 249.363 405.878 248.436 409.448 248.436V269.178H403.994C399.764 269.178 396.624 270.006 394.575 271.66C392.526 273.314 391.501 276.192 391.501 280.294V304.609H372.067V248.933H391.501V258.758Z" fill="#F2409B"/>
<path d="M432.18 243.772C428.743 243.772 425.966 242.846 423.851 240.993C421.802 239.074 420.777 236.693 420.777 233.848C420.777 230.936 421.802 228.521 423.851 226.603C425.966 224.684 428.743 223.725 432.18 223.725C435.551 223.725 438.261 224.684 440.31 226.603C442.426 228.521 443.483 230.936 443.483 233.848C443.483 236.693 442.426 239.074 440.31 240.993C438.261 242.846 435.551 243.772 432.18 243.772ZM441.798 248.933V304.609H422.364V248.933H441.798Z" fill="#F2409B"/>
<path d="M479.338 248.238C483.106 248.238 486.378 248.999 489.155 250.521C491.997 252.042 494.178 254.093 495.699 256.674V248.933H515.132V304.013C515.132 309.24 514.141 313.938 512.158 318.106C510.175 322.34 507.068 325.715 502.838 328.229C498.673 330.743 493.385 332 486.973 332C478.38 332 471.505 329.982 466.35 325.946C461.194 321.91 458.252 316.419 457.525 309.472H476.661C477.058 311.258 478.05 312.647 479.636 313.64C481.222 314.632 483.272 315.129 485.783 315.129C492.394 315.129 495.699 311.423 495.699 304.013V296.868C494.178 299.448 491.997 301.499 489.155 303.021C486.378 304.542 483.106 305.303 479.338 305.303C474.91 305.303 470.878 304.146 467.242 301.83C463.672 299.514 460.83 296.206 458.715 291.905C456.666 287.539 455.641 282.477 455.641 276.721C455.641 270.965 456.666 265.937 458.715 261.636C460.83 257.335 463.672 254.027 467.242 251.712C470.878 249.396 474.91 248.238 479.338 248.238ZM495.699 276.721C495.699 273.148 494.707 270.336 492.724 268.285C490.807 266.234 488.427 265.209 485.585 265.209C482.677 265.209 480.264 266.234 478.347 268.285C476.43 270.27 475.472 273.082 475.472 276.721C475.472 280.294 476.43 283.139 478.347 285.256C480.264 287.307 482.677 288.333 485.585 288.333C488.427 288.333 490.807 287.307 492.724 285.256C494.707 283.205 495.699 280.36 495.699 276.721Z" fill="#F2409B"/>
<path d="M541.972 243.772C538.534 243.772 535.758 242.846 533.643 240.993C531.594 239.074 530.569 236.693 530.569 233.848C530.569 230.936 531.594 228.521 533.643 226.603C535.758 224.684 538.534 223.725 541.972 223.725C545.343 223.725 548.053 224.684 550.102 226.603C552.217 228.521 553.275 230.936 553.275 233.848C553.275 236.693 552.217 239.074 550.102 240.993C548.053 242.846 545.343 243.772 541.972 243.772ZM551.589 248.933V304.609H532.156V248.933H551.589Z" fill="#F2409B"/>
<path d="M604.995 248.436C611.406 248.436 616.496 250.587 620.264 254.887C624.032 259.122 625.916 264.878 625.916 272.156V304.609H606.482V274.736C606.482 271.56 605.656 269.079 604.003 267.293C602.351 265.44 600.136 264.514 597.36 264.514C594.451 264.514 592.171 265.44 590.518 267.293C588.866 269.079 588.04 271.56 588.04 274.736V304.609H568.606V248.933H588.04V256.872C589.758 254.358 592.072 252.34 594.98 250.818C597.889 249.23 601.227 248.436 604.995 248.436Z" fill="#F2409B"/>
<path d="M639.355 276.721C639.355 270.965 640.38 265.937 642.429 261.636C644.544 257.335 647.387 254.027 650.956 251.712C654.592 249.396 658.624 248.238 663.053 248.238C666.887 248.238 670.192 248.999 672.968 250.521C675.744 252.042 677.893 254.093 679.413 256.674V248.933H698.847V304.609H679.413V296.868C677.893 299.448 675.711 301.499 672.869 303.021C670.093 304.542 666.821 305.303 663.053 305.303C658.624 305.303 654.592 304.146 650.956 301.83C647.387 299.514 644.544 296.206 642.429 291.905C640.38 287.539 639.355 282.477 639.355 276.721ZM679.413 276.721C679.413 273.148 678.421 270.336 676.438 268.285C674.521 266.234 672.142 265.209 669.299 265.209C666.391 265.209 663.978 266.234 662.061 268.285C660.144 270.27 659.186 273.082 659.186 276.721C659.186 280.294 660.144 283.139 662.061 285.256C663.978 287.307 666.391 288.333 669.299 288.333C672.142 288.333 674.521 287.307 676.438 285.256C678.421 283.205 679.413 280.36 679.413 276.721Z" fill="#F2409B"/>
<path d="M735.304 231.168V304.609H715.87V231.168H735.304Z" fill="#F2409B"/>
<path fill-rule="evenodd" clip-rule="evenodd" d="M888.776 116.37C888.719 142.481 887.133 167.391 907.099 187.989C926.873 208.386 956.813 213.228 983.802 203.546C988.67 201.8 995.248 197.854 999.338 194.659C1000.61 193.661 1002.3 191.374 1004.17 191.037C1005.18 206.46 1001.36 220.899 990.392 226.788C979.198 232.796 959.529 227.766 948.081 224.757C931.9 220.502 919.384 220.827 906.187 227.979C883.856 240.082 878.252 280.322 913.612 300.137C929.062 308.795 948.118 311.815 968.69 311.858C995.405 311.901 1017.24 307.273 1037.28 297.425C1069.79 281.447 1079.47 261.817 1082.56 259.778C1084.68 260.323 1095.57 270.285 1096.56 257.417C1097.44 245.94 1098.04 240.869 1098 228.992C1097.98 220.053 1093.16 221.305 1086.88 223.725C1081.2 225.909 1063.46 233.773 1059.53 236.96C1057.19 238.862 1057.54 242.355 1059.79 244.075C1060.73 244.797 1062.1 245.402 1063.05 245.956L1065.94 248.269C1061.36 256.94 1043.89 268.679 1033.93 272.787C1019.57 278.71 1003.86 282.073 986.482 282.037C973.519 282.01 959.554 281.105 948.39 277.672C940.412 275.219 921.444 269.623 923.631 259.937C928.579 254.923 939.572 259.108 945.328 260.208C952.75 261.627 960.979 263.244 968.436 264.088C984.009 265.85 1001.78 261.513 1012.63 255.09C1046.99 234.758 1043 192.973 1042.97 152.896L1043.11 78.7929C1043.14 73.7425 1045.38 75.6691 1049.81 68.9823C1059 55.1192 1058 34.8344 1052.9 19.1578C1051.89 16.0519 1050.57 13.0119 1049.15 10.164C1047.68 7.20221 1046.92 3.83331 1042.68 4.57908C1041.88 4.99956 1037.13 19.4817 1034.39 24.7041C1030.89 31.3595 1027.8 36.357 1023.17 42.4046C1018.97 47.8833 1020.8 45.54 1014.83 48.2228C1002.29 53.8536 1004.84 69.6276 1004.81 81.8726L1004.74 129.56C1004.81 173.732 956.179 182.471 936.577 159.554C925.645 146.773 927.332 125.77 927.377 108.253L927.441 69.6972C927.459 60.3936 928.869 50.7105 920.046 46.7881C917.337 45.5837 918.291 46.4664 916.632 44.0239C909.788 33.9487 903.535 22.9336 900.578 10.8573C899.485 6.39288 899.766 4.50459 897.172 1.69351C891.611 -0.912497 884.662 19.9819 883.799 23.0884C879.857 37.2768 879.301 53.3112 886.817 66.6925C888.413 69.535 889.138 69.1802 889.066 73.2306L888.776 116.37Z" fill="#F2409B"/>
<path d="M146.353 204.774C140.867 204.774 136.851 203.991 134.304 202.427C131.757 200.862 130.19 198.711 129.602 195.972C129.014 193.039 128.72 190.007 128.72 186.878V17.6023C128.72 14.473 129.014 11.5393 129.602 8.80115C130.386 6.06301 131.953 3.91162 134.304 2.34696C136.851 0.782321 140.965 0 146.647 0C152.133 0 156.051 0.782321 158.402 2.34696C160.949 3.91162 162.517 6.06301 163.104 8.80115C163.888 11.5393 164.28 14.5708 164.28 17.8957V187.171C164.28 190.301 163.888 193.234 163.104 195.972C162.517 198.711 160.949 200.862 158.402 202.427C155.855 203.991 151.839 204.774 146.353 204.774ZM17.6329 204.774C12.1471 204.774 8.13073 203.991 5.58376 202.427C3.2327 200.862 1.66533 198.711 0.881646 195.972C0.293882 193.039 0 190.007 0 186.878V17.6023C0 14.473 0.293882 11.5393 0.881646 8.80115C1.66533 6.06301 3.33066 3.91162 5.87764 2.34696C8.42461 0.782321 12.441 0 17.9268 0C23.6085 0 27.6249 0.782321 29.9759 2.34696C32.5229 3.91162 34.0903 6.06301 34.6781 8.80115C35.2658 11.5393 35.5597 14.5708 35.5597 17.8957V187.171C35.5597 190.301 35.1679 193.234 34.3842 195.972C33.7964 198.711 32.229 200.862 29.6821 202.427C27.331 203.991 23.3146 204.774 17.6329 204.774ZM26.1555 116.469V84.7845H133.422L133.128 116.469H26.1555Z" fill="#F2409B"/>
<path d="M274.134 204.774C265.122 204.774 256.795 203.209 249.154 200.08C241.709 196.755 235.146 192.061 229.464 185.998C223.783 179.935 219.374 172.698 216.24 164.288C213.105 155.878 211.538 146.588 211.538 136.418V78.0369C211.538 74.712 211.831 71.7783 212.419 69.2358C213.007 66.4976 214.574 64.3462 217.121 62.7816C219.668 61.2169 223.587 60.4346 228.877 60.4346C234.558 60.4346 238.575 61.2169 240.926 62.7816C243.473 64.3462 245.04 66.4976 245.628 69.2358C246.216 71.9739 246.509 75.0054 246.509 78.3303V136.418C246.509 143.459 247.685 149.522 250.036 154.607C252.583 159.692 256.208 163.701 260.91 166.635C265.612 169.373 271.391 170.742 278.249 170.742C285.302 170.742 291.277 169.373 296.175 166.635C301.269 163.701 305.188 159.692 307.931 154.607C310.674 149.326 312.045 143.263 312.045 136.418V77.7435C312.045 74.4187 312.339 71.4849 312.927 68.9424C313.515 66.2042 315.082 64.1506 317.629 62.7816C320.176 61.2169 324.192 60.4346 329.678 60.4346C335.164 60.4346 339.082 61.2169 341.433 62.7816C343.784 64.3462 345.254 66.4976 345.842 69.2358C346.625 71.9739 347.017 74.9076 347.017 78.0369V188.051C347.017 190.985 346.625 193.723 345.842 196.266C345.254 198.808 343.686 200.862 341.139 202.427C338.788 203.991 334.87 204.774 329.384 204.774C325.466 204.774 322.331 204.285 319.98 203.307C317.825 202.524 316.159 201.449 314.984 200.08C314.004 198.515 313.319 196.95 312.927 195.386C312.731 193.821 312.633 192.256 312.633 190.692L314.984 182.771C313.808 184.531 312.045 186.682 309.694 189.225C307.343 191.572 304.404 194.017 300.878 196.559C297.547 198.906 293.629 200.862 289.122 202.427C284.616 203.991 279.62 204.774 274.134 204.774Z" fill="#F2409B"/>
<path d="M410.725 204.774C405.435 204.774 401.517 203.991 398.97 202.427C396.619 200.862 395.149 198.711 394.562 195.972C393.974 193.234 393.68 190.301 393.68 187.171V77.4502C393.68 74.3209 393.974 71.4849 394.562 68.9424C395.149 66.3998 396.717 64.3462 399.264 62.7816C401.811 61.2169 405.827 60.4346 411.313 60.4346C416.995 60.4346 421.109 61.6081 423.656 63.9551C426.399 66.302 427.77 70.0181 427.77 75.1032L425.125 83.3176C426.105 81.1662 427.77 78.8192 430.121 76.2767C432.472 73.7341 435.313 71.1916 438.644 68.649C442.17 66.1065 446.089 64.0528 450.399 62.4882C454.709 60.9235 459.216 60.1412 463.918 60.1412C470.383 60.1412 476.261 61.2169 481.551 63.3683C487.036 65.5197 491.836 68.649 495.951 72.7562C500.261 76.8634 503.984 81.8507 507.118 87.7182C510.449 82.6331 514.171 78.0369 518.286 73.9297C522.4 69.6269 527.2 66.302 532.686 63.9551C538.172 61.4125 544.343 60.1412 551.201 60.1412C562.564 60.1412 572.066 62.9772 579.707 68.649C587.544 74.3209 593.422 82.4375 597.34 92.9989C601.454 103.365 603.512 115.784 603.512 130.257V187.171C603.512 190.496 603.12 193.528 602.336 196.266C601.748 198.808 600.181 200.862 597.634 202.427C595.283 203.991 591.364 204.774 585.879 204.774C580.393 204.774 576.376 203.893 573.83 202.133C571.283 200.569 569.715 198.515 569.127 195.972C568.54 193.234 568.246 190.203 568.246 186.878V129.964C568.246 122.727 567.364 116.469 565.601 111.188C563.838 105.907 561.193 101.8 557.666 98.8663C554.335 95.9326 549.927 94.4657 544.441 94.4657C538.564 94.4657 533.47 95.9326 529.159 98.8663C525.045 101.604 521.812 105.614 519.461 110.895C517.11 116.175 515.935 122.629 515.935 130.257V187.465C515.935 190.789 515.445 193.919 514.465 196.852C513.486 199.591 511.527 201.644 508.588 203.013C505.845 204.578 501.828 205.165 496.539 204.774C491.641 204.578 488.016 203.6 485.665 201.84C483.51 200.08 482.138 197.928 481.551 195.386C481.159 192.648 480.963 189.812 480.963 186.878V129.964C480.963 122.727 480.081 116.469 478.318 111.188C476.555 105.712 473.91 101.604 470.383 98.8663C467.052 95.9326 462.546 94.4657 456.865 94.4657C450.791 94.4657 445.599 96.0304 441.289 99.1597C437.174 102.289 434.04 106.494 431.885 111.775C429.729 117.055 428.652 123.118 428.652 129.964V187.465C428.652 190.594 428.26 193.528 427.476 196.266C426.889 199.004 425.321 201.057 422.774 202.427C420.423 203.991 416.407 204.774 410.725 204.774Z" fill="#F2409B"/>
<path d="M667.711 204.774C662.421 204.774 658.503 203.991 655.956 202.427C653.605 200.862 652.135 198.711 651.548 195.972C650.96 193.234 650.666 190.301 650.666 187.171V77.4502C650.666 74.3209 650.96 71.4849 651.548 68.9424C652.135 66.3998 653.703 64.3462 656.25 62.7816C658.797 61.2169 662.813 60.4346 668.299 60.4346C673.98 60.4346 678.095 61.6081 680.642 63.9551C683.385 66.302 684.756 70.0181 684.756 75.1032L682.111 83.3176C683.091 81.1662 684.756 78.8192 687.107 76.2767C689.458 73.7341 692.299 71.1916 695.63 68.649C699.156 66.1065 703.075 64.0528 707.385 62.4882C711.695 60.9235 716.202 60.1412 720.904 60.1412C727.369 60.1412 733.247 61.2169 738.536 63.3683C744.022 65.5197 748.822 68.649 752.937 72.7562C757.247 76.8634 760.97 81.8507 764.104 87.7182C767.435 82.6331 771.157 78.0369 775.272 73.9297C779.386 69.6269 784.186 66.302 789.672 63.9551C795.158 61.4125 801.329 60.1412 808.187 60.1412C819.55 60.1412 829.052 62.9772 836.693 68.649C844.53 74.3209 850.408 82.4375 854.326 92.9989C858.44 103.365 860.497 115.784 860.497 130.257V187.171C860.497 190.496 860.106 193.528 859.322 196.266C858.734 198.808 857.167 200.862 854.62 202.427C852.269 203.991 848.35 204.774 842.865 204.774C837.379 204.774 833.362 203.893 830.815 202.133C828.268 200.569 826.701 198.515 826.113 195.972C825.526 193.234 825.232 190.203 825.232 186.878V129.964C825.232 122.727 824.35 116.469 822.587 111.188C820.823 105.907 818.178 101.8 814.652 98.8663C811.321 95.9326 806.913 94.4657 801.427 94.4657C795.55 94.4657 790.456 95.9326 786.145 98.8663C782.031 101.604 778.798 105.614 776.447 110.895C774.096 116.175 772.921 122.629 772.921 130.257V187.465C772.921 190.789 772.431 193.919 771.451 196.852C770.472 199.591 768.512 201.644 765.574 203.013C762.831 204.578 758.814 205.165 753.524 204.774C748.626 204.578 745.002 203.6 742.651 201.84C740.496 200.08 739.124 197.928 738.536 195.386C738.145 192.648 737.949 189.812 737.949 186.878V129.964C737.949 122.727 737.067 116.469 735.304 111.188C733.541 105.712 730.896 101.604 727.369 98.8663C724.038 95.9326 719.532 94.4657 713.85 94.4657C707.777 94.4657 702.585 96.0304 698.275 99.1597C694.16 102.289 691.026 106.494 688.87 111.775C686.715 117.055 685.638 123.118 685.638 129.964V187.465C685.638 190.594 685.246 193.528 684.462 196.266C683.874 199.004 682.307 201.057 679.76 202.427C677.409 203.991 673.393 204.774 667.711 204.774Z" fill="#F2409B"/>
</svg>
